<svg clip-rule="evenodd" fill-rule="evenodd" stroke-linejoin="round" stroke-miterlimit="2" viewBox="0 0 560 400" xmlns="http://www.w3.org/2000/svg"><path d="m64.4 28.4h-.1v16.6c0 4-1.3 7.3-4.1 9.9-2.7 2.7-6.1 4-10.1 4h-33.9v-27.1h10.3v17h23.7c2.6 0 3.9-1.3 3.9-3.7v-16.1c0-2.5-1.3-3.7-3.9-3.7h-34v-10.3h34.7c7.4 0 13.5 6 13.5 13.4zm56.6 16.9v-16.9c0-7.5 6-13.5 13.5-13.5h34.6v10.3h-33.7c-2.7 0-4.1 1.3-4.1 3.7v16c0 2.5 1.4 3.7 4.1 3.7h33.7v10.3h-34.5c-7.5 0-13.6-6.1-13.6-13.6zm-4.2-16.7c-.4 4.6-3.8 7.4-6 8.6 3.7 2 6.1 5.6 6.2 8.8.3 7.6-5.7 13.1-13.2 13.1h-40.9c3.8-3.3 6.2-8.2 6.2-13.7v-13.4h33.4c1.8 0 3.6-1.6 3.6-3.4 0-1.9-1.5-3.2-3.3-3.2h-33.9c-.8-4.1-2.9-7.7-5.8-10.3h40.6c7.5 0 13.8 6.1 13.1 13.5zm-14.2 20.2c1.8-.1 3.1-1.5 3.1-3.3s-1.5-3.3-3.3-3.3h-23.1v6.6zm-70.6 19.3c0 1.3-.4 2.3-1.1 3.2-.8.9-1.8 1.4-3.1 1.4h-4c-1.1 0-1.9.1-2.4.3-.7.3-1.2 1-1.3 1.9h11.2v3.5h-15v-1.8c-.1-4.9 2.5-7.4 7.6-7.4h4c.5 0 .8-.4.8-1.1s-.3-1.1-.8-1.1h-11v-3.5h10.9c1.2 0 2.3.5 3.1 1.4s1.1 1.9 1.1 3.2zm17.2 7.3h-2.4v3h-3.5v-3h-9.8v-3.4l8.6-8.6h4.7v8.5h4.9zm-5.9-3.5v-5.1l-5.4 5.1zm19.8-8.4-9.3 14.9h-4.7l9.6-14.9zm9.7 14.9h-4.7l7.5-11.4h-13l2.1-3.5h17.4zm13.9-14.9h82.4v14.9h-91v-.1l4.7-8.1zm35 12.6v-2.5h-11.1c-.4 0-.6-.2-.6-.5v-1h11.6v-2.3h-11.6v-1c0-.3.2-.5.6-.5h11.1v-2.3h-11.1c-2 0-3 .9-3 2.5v5.1c0 1.7 1 2.5 3 2.5zm41-2.4v-1.5c0-1.6-1-2.4-3-2.4h-8.4c-.4 0-.6-.2-.6-.4v-.8c0-.3.2-.4.6-.4h11.1v-2.3h-11.1c-2 0-3 .9-3 2.5v1.6c0 1.5 1 2.2 3 2.2h8.4c.4 0 .6.2.6.4v.8c0 .3-.2.4-.6.4h-11.1v2.3h11.1c2 0 3-.8 3-2.4zm-58.8 2.4v-10.1h-2.4v7.7h-.1c-.3 0-.5 0-.8-.2-.2-.1-.4-.3-.6-.5l-4.9-5.7c-.4-.4-.8-.8-1.3-1s-1-.3-1.7-.3h-2.5v10.1h2.4v-7.7h.1c.3 0 .5.1.8.2.2.1.4.3.6.5l4.8 5.6c.4.5.8.9 1.3 1.1s1.1.3 1.8.3zm39.3-1.2 2.1-8.8h-2.7l-1.4 7.2c-.1.3-.3.5-.5.5h-.4c-.2 0-.4-.2-.5-.5l-2.8-7.3h-4.2l-2.8 7.3c-.1.3-.3.5-.5.5h-.4c-.3 0-.4-.2-.5-.5l-1.4-7.2h-2.7l2.1 8.8c.1.4.3.7.6.9s.6.3 1 .3h1.9c.4 0 .8-.1 1.1-.3.3-.3.6-.5.7-.9l2.6-6.5h.8l2.6 6.5c.1.4.4.7.7.9s.7.3 1.1.3h1.9c.2 0 .3 0 .5-.1.2 0 .4-.1.5-.2.2-.1.3-.2.4-.4.1-.1.1-.3.2-.5z" fill="#dc2626" transform="matrix(2.35448 0 0 2.35448 61.8574 90.1635)"/></svg>